<svg xmlns="http://www.w3.org/2000/svg" viewBox="0 0 355.22 117.41"><title>logo</title><circle cx="49" cy="49" r="49"/><path d="M56.34,66.71,60.16,66a20.07,20.07,0,0,0,7.9-3.38,13.63,13.63,0,0,0,5.14-7A22.25,22.25,0,0,0,74,42a13.37,13.37,0,0,0-3-5.33.84.84,0,0,1-.19-1,14,14,0,0,0-.48-9.81.86.86,0,0,0-.58-.41,6,6,0,0,0-3.27.48,33.83,33.83,0,0,0-6.93,3.42,1.2,1.2,0,0,1-1.09.18,38.51,38.51,0,0,0-18.78-.05,1.77,1.77,0,0,1-1.56-.29,22.36,22.36,0,0,0-8.57-3.8c-1.62-.29-1.74-.21-2.21,1.35a13.6,13.6,0,0,0,0,9,.81.81,0,0,1-.12.64c-3.39,4.21-4.19,9.06-3.42,14.25A27.25,27.25,0,0,0,25,55.76c2.05,5.69,6.41,8.72,12.07,10.12,1.34.33,2.72.47,4.08.7l.48.1a20.82,20.82,0,0,0-1.44,2.21,15.42,15.42,0,0,0-.9,2.66,1,1,0,0,1-.61.75,11.49,11.49,0,0,1-5.68.64,7,7,0,0,1-4.81-3.26,24.12,24.12,0,0,0-1.42-2.05c-1.64-1.95-3.62-3.31-6.31-3.17-.31,0-.78.18-.87.4s.15.64.35.9a2.12,2.12,0,0,0,.81.64A7.19,7.19,0,0,1,24,69.46a33.78,33.78,0,0,1,1.86,3.46A7.41,7.41,0,0,0,32,77.2a18.37,18.37,0,0,0,6.53,0,3.53,3.53,0,0,1,.5,0V82.8c0,.46,0,.92,0,1.38a2.12,2.12,0,0,1-3.05,2.2A58.27,58.27,0,0,1,29,83.28a40.22,40.22,0,0,1-17.19-19A38.58,38.58,0,0,1,8.74,47.11,38.07,38.07,0,0,1,14,28.56a39.13,39.13,0,0,1,8.66-9.89,39.93,39.93,0,0,1,16.72-8.59C52,7.15,63.62,9.57,73.89,17.47A38.67,38.67,0,0,1,88.75,42.7,39.94,39.94,0,0,1,70.59,83,37,37,0,0,1,62,87a2.14,2.14,0,0,1-3-2.2c0-3.68,0-7.36,0-11a9.92,9.92,0,0,0-1.44-5.44C57.18,67.74,56.75,67.25,56.34,66.71Z" style="fill:#fff"/><path d="M31.3,73.05l1.16.93c-.22.2-.46.58-.66.56-.4,0-1,0-1.06-.61C30.73,73.7,31,73.46,31.3,73.05Z" style="fill:#fff"/><path d="M29.17,73c-.68-.08-1.33-.65-1.18-1a1,1,0,0,1,.68-.43c.41,0,1,.62.86,1C29.48,72.73,29.25,72.87,29.17,73Z" style="fill:#fff"/><path d="M37.78,74.5c-.21-.17-.58-.32-.61-.53-.09-.53.35-.7.79-.73s.79,0,.81.55-.46.57-.88.55Z" style="fill:#fff"/><path d="M35,75.12c-.37-.34-.77-.53-.84-.81-.11-.44.31-.54.69-.53s.92,0,.9.57C35.76,74.57,35.36,74.77,35,75.12Z" style="fill:#fff"/><path d="M26.65,69a11.22,11.22,0,0,1,.78,1.21c0,.07-.43.46-.45.45a7.11,7.11,0,0,1-.95-1A4.8,4.8,0,0,1,26.65,69Z" style="fill:#fff"/><path d="M25.41,68.62a7.66,7.66,0,0,1-.71-.91s.2-.26.31-.39c.27.25.55.5.79.77C25.83,68.12,25.61,68.35,25.41,68.62Z" style="fill:#fff"/><path d="M22.82,66.3c.31-.56.7-.54,1.08-.2.1.09.1.53,0,.57C23.44,66.92,23.14,66.58,22.82,66.3Z" style="fill:#fff"/><rect x="87.71" y="74.42" width="13" height="48.14" rx="6.5" transform="translate(-42.05 95.46) rotate(-45)"/><text transform="translate(113.07 48.41)" style="font-size:50px;fill:#113cfc;font-family:BebasKai, Bebas Kai"><tspan style="letter-spacing:-0.0019921875em">L</tspan><tspan x="17.45" y="0" style="letter-spacing:-0.005em">o</tspan><tspan x="38.9" y="0">ve</tspan><tspan x="78.85" y="0" style="letter-spacing:-0.06em">l</tspan><tspan x="93.4" y="0" style="letter-spacing:-0.019990234375em">y</tspan><tspan style="font-size:70.37294006347656px;fill!:#000"><tspan x="0" y="52.45">Gi</tspan><tspan x="45.11" y="52.45" style="letter-spacing:-0.0009922026660676446em">t</tspan><tspan x="69.95" y="52.45">Sea</tspan><tspan x="151.65" y="52.45" style="letter-spacing:-0.0009922026660676446em">r</tspan><tspan x="181.7" y="52.45">ch</tspan></tspan></text></svg>